# Blender 4.5.2 LTS
# www.blender.org
mtllib mpxmag.mtl
o Magazine_Standard
v -0.047043 -0.373133 -0.043591
v -0.047043 -0.373133 -0.043591
v -0.047043 -0.373133 -0.043591
v -0.047043 -0.373133 -0.043591
v 0.003254 -0.139763 -0.043591
v 0.003254 -0.139763 -0.043591
v 0.003254 -0.139763 -0.043591
v -0.244270 -0.179456 -0.043591
v -0.244270 -0.179456 -0.043591
v -0.244270 -0.179456 -0.043591
v -0.285977 -0.357432 -0.043591
v -0.285977 -0.357432 -0.043591
v -0.285977 -0.357432 -0.043591
v -0.373920 -0.588811 -0.043591
v -0.373920 -0.588811 -0.043591
v -0.373920 -0.588811 -0.043591
v -0.373920 -0.588811 -0.043591
v -0.130234 -0.613616 -0.043591
v -0.130234 -0.613616 -0.043591
v -0.130234 -0.613616 -0.043591
v -0.130234 -0.613616 -0.043591
v -0.525383 -0.858803 -0.048359
v -0.525383 -0.858803 -0.048359
v -0.525383 -0.858803 -0.048359
v -0.525383 -0.858803 -0.048359
v -0.304839 -0.918296 -0.048359
v -0.304839 -0.918296 -0.048359
v -0.304839 -0.918296 -0.048359
v -0.304839 -0.918296 -0.048359
v -0.223583 -0.148269 -0.043591
v -0.223583 -0.148269 -0.043591
v -0.223583 -0.148269 -0.043591
v -0.223583 -0.148269 -0.043591
v 0.039218 0.080043 -0.043591
v 0.039218 0.080043 -0.043591
v 0.039218 0.080043 -0.043591
v 0.039218 0.080043 -0.043591
v 0.039218 0.080043 -0.043591
v -0.188609 0.072922 -0.043591
v -0.188609 0.072922 -0.043591
v -0.188609 0.072922 -0.043591
v -0.188609 0.072922 -0.043591
v 0.005432 -0.115193 -0.043591
v 0.005432 -0.115193 -0.043591
v 0.005432 -0.115193 -0.043591
v 0.005432 -0.115193 -0.043591
v 0.005432 -0.115193 -0.043591
v -0.220737 -0.123624 -0.043591
v -0.220737 -0.123624 -0.043591
v -0.220737 -0.123624 -0.043591
v -0.220737 -0.123624 -0.043591
v 0.021954 -0.114844 -0.043591
v 0.021954 -0.114844 -0.043591
v 0.021954 -0.114844 -0.043591
v -0.498056 -0.814876 -0.043591
v -0.498056 -0.814876 -0.043591
v -0.498056 -0.814876 -0.043591
v -0.498056 -0.814876 -0.043591
v -0.272645 -0.865738 -0.043591
v -0.272645 -0.865738 -0.043591
v -0.272645 -0.865738 -0.043591
v -0.272645 -0.865738 -0.043591
v -0.272645 -0.865738 -0.043591
v -0.272645 -0.865738 -0.043591
v -0.272645 -0.865738 -0.043591
v -0.514730 -0.841481 -0.043591
v -0.514730 -0.841481 -0.043591
v -0.514730 -0.841481 -0.043591
v -0.514730 -0.841481 -0.043591
v -0.514730 -0.841481 -0.043591
v -0.448758 -0.825868 -0.043591
v -0.448758 -0.825868 -0.043591
v -0.448758 -0.825868 -0.043591
v -0.448758 -0.825868 -0.043591
v -0.448758 -0.825868 -0.043591
v -0.448758 -0.825868 -0.043591
v -0.465903 -0.853516 -0.043591
v -0.465903 -0.853516 -0.043591
v -0.465903 -0.853516 -0.043591
v -0.255816 -0.869643 -0.043591
v -0.255816 -0.869643 -0.043591
v -0.255816 -0.869643 -0.043591
v -0.282332 -0.923516 -0.042931
v -0.282332 -0.923516 -0.042931
v -0.282332 -0.923516 -0.042931
v 0.021954 -0.114844 -0.017437
v 0.021954 -0.114844 -0.017437
v 0.021954 -0.114844 -0.017437
v 0.021954 -0.114844 -0.017437
v 0.005432 -0.115193 -0.017437
v 0.005432 -0.115193 -0.017437
v 0.005432 -0.115193 -0.017437
v 0.003254 -0.139763 -0.017437
v 0.003254 -0.139763 -0.017437
v 0.003254 -0.139763 -0.017437
v 0.003254 -0.139763 -0.017437
v -0.047043 -0.373133 -0.017437
v -0.047043 -0.373133 -0.017437
v -0.047043 -0.373133 -0.017437
v -0.047043 -0.373133 -0.017437
v -0.130234 -0.613616 -0.017437
v -0.130234 -0.613616 -0.017437
v -0.130234 -0.613616 -0.017437
v -0.272645 -0.865738 -0.017437
v -0.272645 -0.865738 -0.017437
v -0.272645 -0.865738 -0.017437
v -0.255816 -0.869643 -0.017437
v -0.255816 -0.869643 -0.017437
v -0.255816 -0.869643 -0.017437
v -0.255816 -0.869643 -0.017437
v -0.255816 -0.869643 -0.017437
v -0.114360 -0.615692 -0.017437
v -0.114360 -0.615692 -0.017437
v -0.114360 -0.615692 -0.017437
v -0.030846 -0.374261 -0.017437
v -0.030846 -0.374261 -0.017437
v -0.030846 -0.374261 -0.017437
v -0.030846 -0.374261 -0.017437
v 0.019665 -0.139905 -0.017437
v 0.019665 -0.139905 -0.017437
v 0.019665 -0.139905 -0.017437
v 0.019665 -0.139905 -0.017437
v -0.253437 -0.870219 -0.042931
v -0.253437 -0.870219 -0.042931
v -0.253437 -0.870219 -0.042931
v -0.253437 -0.870219 -0.042931
v -0.253437 -0.870219 -0.016005
v -0.253437 -0.870219 -0.016005
v -0.253437 -0.870219 -0.016005
v -0.267273 -0.903317 -0.044140
v -0.267273 -0.903317 -0.044140
v -0.267273 -0.903317 -0.044140
v -0.267273 -0.903317 -0.044140
v -0.465903 -0.853516 -0.048359
v -0.465903 -0.853516 -0.048359
v -0.465903 -0.853516 -0.048359
v -0.465903 -0.853516 -0.048359
v -0.525069 -0.838844 -0.043661
v -0.525069 -0.838844 -0.043661
v -0.525069 -0.838844 -0.043661
v -0.525069 -0.838844 -0.043661
v -0.292131 -0.897550 -0.048359
v -0.292131 -0.897550 -0.048359
v -0.292131 -0.897550 -0.048359
v -0.292131 -0.897550 -0.048359
v -0.535869 -0.856195 -0.043661
v -0.535869 -0.856195 -0.043661
v -0.535869 -0.856195 -0.043661
v -0.448758 -0.825868 -0.045243
v -0.448758 -0.825868 -0.045243
v -0.448758 -0.825868 -0.045243
v -0.272645 -0.865738 -0.045243
v -0.272645 -0.865738 -0.045243
v -0.272645 -0.865738 -0.045243
v -0.272645 -0.865738 -0.045243
v -0.514730 -0.841481 -0.048359
v -0.514730 -0.841481 -0.048359
v -0.514730 -0.841481 -0.048359
v -0.514730 -0.841481 -0.048359
v 0.023677 0.079557 -0.037644
v 0.023677 0.079557 -0.037644
v 0.023677 0.079557 -0.037644
v 0.023677 0.079557 -0.037644
v 0.023677 0.079557 -0.037644
v -0.173067 0.073408 -0.037644
v -0.173067 0.073408 -0.037644
v -0.173067 0.073408 -0.037644
v -0.173067 0.073408 -0.037644
v 0.018163 -0.002944 -0.037644
v 0.018163 -0.002944 -0.037644
v 0.018163 -0.002944 -0.037644
v -0.178582 -0.009094 -0.037644
v -0.178582 -0.009094 -0.037644
v -0.178582 -0.009094 -0.037644
v 0.039218 0.080043 -0.037663
v 0.039218 0.080043 -0.037663
v 0.039218 0.080043 -0.037663
v 0.039218 0.080043 -0.037663
v -0.156842 0.073920 -0.037644
v -0.156842 0.073920 -0.037644
v -0.156842 0.073920 -0.037644
v -0.156842 0.073920 -0.037644
v -0.156842 0.073920 -0.043591
v -0.156842 0.073920 -0.043591
v -0.156842 0.073920 -0.043591
v -0.156842 0.073920 -0.043591
v 0.039768 0.094413 -0.037663
v 0.039768 0.094413 -0.037663
v 0.039768 0.094413 -0.037663
v 0.039768 0.094413 -0.037663
v 0.039768 0.094413 -0.037663
v 0.039769 0.094413 -0.043591
v 0.039769 0.094413 -0.043591
v 0.039769 0.094413 -0.043591
v 0.039769 0.094413 -0.043591
v -0.126491 0.089831 -0.043591
v -0.126491 0.089831 -0.043591
v -0.126491 0.089831 -0.043591
v -0.126491 0.089831 -0.043591
v -0.126490 0.089831 -0.037286
v -0.126490 0.089831 -0.037286
v -0.126490 0.089831 -0.037286
v -0.126490 0.089831 -0.037286
v 0.039981 0.119094 -0.025160
v 0.039981 0.119094 -0.025160
v 0.039981 0.119094 -0.025160
v -0.126278 0.114512 -0.025160
v -0.126278 0.114512 -0.025160
v -0.126278 0.114512 -0.025160
v -0.125648 0.108648 -0.022693
v -0.125648 0.108648 -0.022693
v -0.125648 0.108648 -0.022693
v 0.040611 0.113231 -0.022704
v 0.040611 0.113231 -0.022704
v 0.040611 0.113231 -0.022704
v -0.040202 -0.141252 -0.043591
v -0.040202 -0.141252 -0.043591
v -0.040202 -0.141252 -0.043591
v -0.040202 -0.141252 -0.043591
v -0.094830 -0.369993 -0.043591
v -0.094830 -0.369993 -0.043591
v -0.094830 -0.369993 -0.043591
v -0.094830 -0.369993 -0.043591
v -0.178971 -0.608654 -0.043591
v -0.178971 -0.608654 -0.043591
v -0.178971 -0.608654 -0.043591
v -0.178971 -0.608654 -0.043591
v -0.198466 -0.606670 -0.043591
v -0.198466 -0.606670 -0.043591
v -0.198466 -0.606670 -0.043591
v -0.113945 -0.368737 -0.043591
v -0.113945 -0.368737 -0.043591
v -0.113945 -0.368737 -0.043591
v -0.057584 -0.141846 -0.043591
v -0.057584 -0.141846 -0.043591
v -0.057584 -0.141846 -0.043591
v -0.057584 -0.141846 -0.043591
v -0.120161 -0.143989 -0.043591
v -0.120161 -0.143989 -0.043591
v -0.120161 -0.143989 -0.043591
v -0.182758 -0.364215 -0.043591
v -0.182758 -0.364215 -0.043591
v -0.182758 -0.364215 -0.043591
v -0.268647 -0.599527 -0.043591
v -0.268647 -0.599527 -0.043591
v -0.268647 -0.599527 -0.043591
v -0.138934 -0.144632 -0.043591
v -0.138934 -0.144632 -0.043591
v -0.138934 -0.144632 -0.043591
v -0.138934 -0.144632 -0.043591
v -0.203402 -0.362858 -0.043591
v -0.203402 -0.362858 -0.043591
v -0.203402 -0.362858 -0.043591
v -0.289702 -0.597383 -0.043591
v -0.289702 -0.597383 -0.043591
v -0.289702 -0.597383 -0.043591
v -0.289702 -0.597383 -0.043591
v -0.374745 -0.792015 -0.043591
v -0.374745 -0.792015 -0.043591
v -0.374745 -0.792015 -0.043591
v -0.374745 -0.792015 -0.043591
v -0.395934 -0.787632 -0.043591
v -0.395934 -0.787632 -0.043591
v -0.395934 -0.787632 -0.043591
v -0.395934 -0.787632 -0.043591
v -0.305976 -0.845202 -0.043591
v -0.305976 -0.845202 -0.043591
v -0.305976 -0.845202 -0.043591
v -0.305976 -0.845202 -0.043591
v -0.321924 -0.841726 -0.043591
v -0.321924 -0.841726 -0.043591
v -0.321924 -0.841726 -0.043591
v -0.321924 -0.841726 -0.043591
v -0.321924 -0.841726 -0.043591
v -0.198466 -0.606670 -0.037459
v -0.198466 -0.606670 -0.037459
v -0.198466 -0.606670 -0.037459
v -0.198466 -0.606670 -0.037459
v -0.113945 -0.368737 -0.037459
v -0.113945 -0.368737 -0.037459
v -0.113945 -0.368737 -0.037459
v -0.094830 -0.369993 -0.037459
v -0.094830 -0.369993 -0.037459
v -0.094830 -0.369993 -0.037459
v -0.178971 -0.608654 -0.037459
v -0.178971 -0.608654 -0.037459
v -0.178971 -0.608654 -0.037459
v -0.178971 -0.608654 -0.037459
v -0.057584 -0.141846 -0.037459
v -0.057584 -0.141846 -0.037459
v -0.057584 -0.141846 -0.037459
v -0.040202 -0.141252 -0.037459
v -0.040202 -0.141252 -0.037459
v -0.040202 -0.141252 -0.037459
v -0.305976 -0.845202 -0.037459
v -0.305976 -0.845202 -0.037459
v -0.305976 -0.845202 -0.037459
v -0.321924 -0.841726 -0.037459
v -0.321924 -0.841726 -0.037459
v -0.321924 -0.841726 -0.037459
v -0.138934 -0.144632 -0.037459
v -0.138934 -0.144632 -0.037459
v -0.138934 -0.144632 -0.037459
v -0.203402 -0.362858 -0.037459
v -0.203402 -0.362858 -0.037459
v -0.203402 -0.362858 -0.037459
v -0.203402 -0.362858 -0.037459
v -0.120161 -0.143989 -0.037459
v -0.120161 -0.143989 -0.037459
v -0.120161 -0.143989 -0.037459
v -0.182758 -0.364215 -0.037459
v -0.182758 -0.364215 -0.037459
v -0.182758 -0.364215 -0.037459
v -0.182758 -0.364215 -0.037459
v -0.289702 -0.597383 -0.037459
v -0.289702 -0.597383 -0.037459
v -0.289702 -0.597383 -0.037459
v -0.289702 -0.597383 -0.037459
v -0.268647 -0.599527 -0.037459
v -0.268647 -0.599527 -0.037459
v -0.268647 -0.599527 -0.037459
v -0.268647 -0.599527 -0.037459
v -0.374745 -0.792015 -0.037459
v -0.374745 -0.792015 -0.037459
v -0.374745 -0.792015 -0.037459
v -0.395934 -0.787632 -0.037459
v -0.395934 -0.787632 -0.037459
v -0.395934 -0.787632 -0.037459
v -0.047043 -0.373133 0.043591
v -0.047043 -0.373133 0.043591
v -0.047043 -0.373133 0.043591
v -0.047043 -0.373133 0.043591
v 0.003254 -0.139763 0.043591
v 0.003254 -0.139763 0.043591
v 0.003254 -0.139763 0.043591
v -0.244270 -0.179456 0.043591
v -0.244270 -0.179456 0.043591
v -0.244270 -0.179456 0.043591
v -0.285977 -0.357432 0.043591
v -0.285977 -0.357432 0.043591
v -0.285977 -0.357432 0.043591
v -0.373920 -0.588811 0.043591
v -0.373920 -0.588811 0.043591
v -0.373920 -0.588811 0.043591
v -0.373920 -0.588811 0.043591
v -0.130234 -0.613616 0.043591
v -0.130234 -0.613616 0.043591
v -0.130234 -0.613616 0.043591
v -0.130234 -0.613616 0.043591
v -0.525383 -0.858803 0.048359
v -0.525383 -0.858803 0.048359
v -0.525383 -0.858803 0.048359
v -0.525383 -0.858803 0.048359
v -0.304839 -0.918296 0.048359
v -0.304839 -0.918296 0.048359
v -0.304839 -0.918296 0.048359
v -0.304839 -0.918296 0.048359
v -0.223583 -0.148269 0.043591
v -0.223583 -0.148269 0.043591
v -0.223583 -0.148269 0.043591
v -0.223583 -0.148269 0.043591
v 0.039218 0.080043 0.043591
v 0.039218 0.080043 0.043591
v 0.039218 0.080043 0.043591
v 0.039218 0.080043 0.043591
v 0.039218 0.080043 0.043591
v -0.188609 0.072922 0.043591
v -0.188609 0.072922 0.043591
v -0.188609 0.072922 0.043591
v -0.188609 0.072922 0.043591
v 0.005432 -0.115193 0.043591
v 0.005432 -0.115193 0.043591
v 0.005432 -0.115193 0.043591
v 0.005432 -0.115193 0.043591
v 0.005432 -0.115193 0.043591
v -0.220737 -0.123624 0.043591
v -0.220737 -0.123624 0.043591
v -0.220737 -0.123624 0.043591
v -0.220737 -0.123624 0.043591
v 0.021954 -0.114844 0.043591
v 0.021954 -0.114844 0.043591
v 0.021954 -0.114844 0.043591
v -0.498056 -0.814876 0.043591
v -0.498056 -0.814876 0.043591
v -0.498056 -0.814876 0.043591
v -0.498056 -0.814876 0.043591
v -0.272645 -0.865738 0.043591
v -0.272645 -0.865738 0.043591
v -0.272645 -0.865738 0.043591
v -0.272645 -0.865738 0.043591
v -0.272645 -0.865738 0.043591
v -0.272645 -0.865738 0.043591
v -0.272645 -0.865738 0.043591
v -0.514730 -0.841481 0.043591
v -0.514730 -0.841481 0.043591
v -0.514730 -0.841481 0.043591
v -0.514730 -0.841481 0.043591
v -0.514730 -0.841481 0.043591
v -0.448758 -0.825868 0.043591
v -0.448758 -0.825868 0.043591
v -0.448758 -0.825868 0.043591
v -0.448758 -0.825868 0.043591
v -0.448758 -0.825868 0.043591
v -0.448758 -0.825868 0.043591
v -0.465903 -0.853516 0.043591
v -0.465903 -0.853516 0.043591
v -0.465903 -0.853516 0.043591
v -0.255816 -0.869643 0.043591
v -0.255816 -0.869643 0.043591
v -0.255816 -0.869643 0.043591
v -0.282332 -0.923516 0.042931
v -0.282332 -0.923516 0.042931
v -0.282332 -0.923516 0.042931
v 0.021954 -0.114844 0.017437
v 0.021954 -0.114844 0.017437
v 0.021954 -0.114844 0.017437
v 0.021954 -0.114844 0.017437
v 0.005432 -0.115193 0.017437
v 0.005432 -0.115193 0.017437
v 0.005432 -0.115193 0.017437
v 0.003254 -0.139763 0.017437
v 0.003254 -0.139763 0.017437
v 0.003254 -0.139763 0.017437
v 0.003254 -0.139763 0.017437
v -0.047043 -0.373133 0.017437
v -0.047043 -0.373133 0.017437
v -0.047043 -0.373133 0.017437
v -0.047043 -0.373133 0.017437
v -0.130234 -0.613616 0.017437
v -0.130234 -0.613616 0.017437
v -0.130234 -0.613616 0.017437
v -0.130234 -0.613616 0.017437
v -0.272645 -0.865738 0.017437
v -0.272645 -0.865738 0.017437
v -0.272645 -0.865738 0.017437
v -0.255816 -0.869643 0.017437
v -0.255816 -0.869643 0.017437
v -0.255816 -0.869643 0.017437
v -0.255816 -0.869643 0.017437
v -0.255816 -0.869643 0.017437
v -0.114360 -0.615692 0.017437
v -0.114360 -0.615692 0.017437
v -0.114360 -0.615692 0.017437
v -0.114360 -0.615692 0.017437
v -0.030846 -0.374261 0.017437
v -0.030846 -0.374261 0.017437
v -0.030846 -0.374261 0.017437
v -0.030846 -0.374261 0.017437
v 0.019665 -0.139905 0.017437
v 0.019665 -0.139905 0.017437
v 0.019665 -0.139905 0.017437
v -0.253437 -0.870219 0.042931
v -0.253437 -0.870219 0.042931
v -0.253437 -0.870219 0.042931
v -0.253437 -0.870219 0.042931
v -0.253437 -0.870219 0.016005
v -0.253437 -0.870219 0.016005
v -0.253437 -0.870219 0.016005
v -0.267273 -0.903317 0.044140
v -0.267273 -0.903317 0.044140
v -0.267273 -0.903317 0.044140
v -0.267273 -0.903317 0.044140
v -0.465903 -0.853516 0.048359
v -0.465903 -0.853516 0.048359
v -0.465903 -0.853516 0.048359
v -0.465903 -0.853516 0.048359
v -0.525069 -0.838844 0.043661
v -0.525069 -0.838844 0.043661
v -0.525069 -0.838844 0.043661
v -0.525069 -0.838844 0.043661
v -0.292131 -0.897550 0.048359
v -0.292131 -0.897550 0.048359
v -0.292131 -0.897550 0.048359
v -0.292131 -0.897550 0.048359
v -0.535869 -0.856195 0.043661
v -0.535869 -0.856195 0.043661
v -0.535869 -0.856195 0.043661
v -0.448758 -0.825868 0.045243
v -0.448758 -0.825868 0.045243
v -0.448758 -0.825868 0.045243
v -0.272645 -0.865738 0.045243
v -0.272645 -0.865738 0.045243
v -0.272645 -0.865738 0.045243
v -0.272645 -0.865738 0.045243
v -0.514730 -0.841481 0.048359
v -0.514730 -0.841481 0.048359
v -0.514730 -0.841481 0.048359
v -0.514730 -0.841481 0.048359
v 0.023677 0.079557 0.037644
v 0.023677 0.079557 0.037644
v 0.023677 0.079557 0.037644
v 0.023677 0.079557 0.037644
v 0.023677 0.079557 0.037644
v -0.173067 0.073408 0.037644
v -0.173067 0.073408 0.037644
v -0.173067 0.073408 0.037644
v -0.173067 0.073408 0.037644
v 0.018163 -0.002944 0.037644
v 0.018163 -0.002944 0.037644
v 0.018163 -0.002944 0.037644
v -0.178582 -0.009094 0.037644
v -0.178582 -0.009094 0.037644
v -0.178582 -0.009094 0.037644
v 0.039218 0.080043 0.037663
v 0.039218 0.080043 0.037663
v 0.039218 0.080043 0.037663
v 0.039218 0.080043 0.037663
v -0.156842 0.073920 0.037644
v -0.156842 0.073920 0.037644
v -0.156842 0.073920 0.037644
v -0.156842 0.073920 0.037644
v -0.156842 0.073920 0.043591
v -0.156842 0.073920 0.043591
v -0.156842 0.073920 0.043591
v -0.156842 0.073920 0.043591
v 0.039768 0.094413 0.037663
v 0.039768 0.094413 0.037663
v 0.039768 0.094413 0.037663
v 0.039768 0.094413 0.037663
v 0.039768 0.094413 0.037663
v 0.039769 0.094413 0.043591
v 0.039769 0.094413 0.043591
v 0.039769 0.094413 0.043591
v 0.039769 0.094413 0.043591
v -0.126491 0.089831 0.043591
v -0.126491 0.089831 0.043591
v -0.126491 0.089831 0.043591
v -0.126491 0.089831 0.043591
v -0.126490 0.089831 0.037286
v -0.126490 0.089831 0.037286
v -0.126490 0.089831 0.037286
v -0.126490 0.089831 0.037286
v 0.039981 0.119094 0.025160
v 0.039981 0.119094 0.025160
v 0.039981 0.119094 0.025160
v -0.126278 0.114512 0.025161
v -0.126278 0.114512 0.025161
v -0.126278 0.114512 0.025161
v -0.125648 0.108648 0.022694
v -0.125648 0.108648 0.022694
v -0.125648 0.108648 0.022694
v 0.040611 0.113231 0.022704
v 0.040611 0.113231 0.022704
v 0.040611 0.113231 0.022704
v -0.040202 -0.141252 0.043591
v -0.040202 -0.141252 0.043591
v -0.040202 -0.141252 0.043591
v -0.040202 -0.141252 0.043591
v -0.094830 -0.369993 0.043591
v -0.094830 -0.369993 0.043591
v -0.094830 -0.369993 0.043591
v -0.094830 -0.369993 0.043591
v -0.178971 -0.608654 0.043591
v -0.178971 -0.608654 0.043591
v -0.178971 -0.608654 0.043591
v -0.178971 -0.608654 0.043591
v -0.198466 -0.606670 0.043591
v -0.198466 -0.606670 0.043591
v -0.198466 -0.606670 0.043591
v -0.113945 -0.368737 0.043591
v -0.113945 -0.368737 0.043591
v -0.113945 -0.368737 0.043591
v -0.113945 -0.368737 0.043591
v -0.057584 -0.141846 0.043591
v -0.057584 -0.141846 0.043591
v -0.057584 -0.141846 0.043591
v -0.057584 -0.141846 0.043591
v -0.120161 -0.143989 0.043591
v -0.120161 -0.143989 0.043591
v -0.120161 -0.143989 0.043591
v -0.120161 -0.143989 0.043591
v -0.182758 -0.364215 0.043591
v -0.182758 -0.364215 0.043591
v -0.182758 -0.364215 0.043591
v -0.182758 -0.364215 0.043591
v -0.268647 -0.599527 0.043591
v -0.268647 -0.599527 0.043591
v -0.268647 -0.599527 0.043591
v -0.138934 -0.144632 0.043591
v -0.138934 -0.144632 0.043591
v -0.138934 -0.144632 0.043591
v -0.138934 -0.144632 0.043591
v -0.203402 -0.362858 0.043591
v -0.203402 -0.362858 0.043591
v -0.203402 -0.362858 0.043591
v -0.289702 -0.597383 0.043591
v -0.289702 -0.597383 0.043591
v -0.289702 -0.597383 0.043591
v -0.289702 -0.597383 0.043591
v -0.374745 -0.792015 0.043591
v -0.374745 -0.792015 0.043591
v -0.374745 -0.792015 0.043591
v -0.374745 -0.792015 0.043591
v -0.374745 -0.792015 0.043591
v -0.395934 -0.787632 0.043591
v -0.395934 -0.787632 0.043591
v -0.395934 -0.787632 0.043591
v -0.395934 -0.787632 0.043591
v -0.305976 -0.845202 0.043591
v -0.305976 -0.845202 0.043591
v -0.305976 -0.845202 0.043591
v -0.305976 -0.845202 0.043591
v -0.321924 -0.841726 0.043591
v -0.321924 -0.841726 0.043591
v -0.321924 -0.841726 0.043591
v -0.321924 -0.841726 0.043591
v -0.321924 -0.841726 0.043591
v -0.198466 -0.606670 0.037459
v -0.198466 -0.606670 0.037459
v -0.198466 -0.606670 0.037459
v -0.198466 -0.606670 0.037459
v -0.113945 -0.368737 0.037459
v -0.113945 -0.368737 0.037459
v -0.113945 -0.368737 0.037459
v -0.113945 -0.368737 0.037459
v -0.094830 -0.369993 0.037459
v -0.094830 -0.369993 0.037459
v -0.094830 -0.369993 0.037459
v -0.094830 -0.369993 0.037459
v -0.178971 -0.608654 0.037459
v -0.178971 -0.608654 0.037459
v -0.178971 -0.608654 0.037459
v -0.178971 -0.608654 0.037459
v -0.057584 -0.141846 0.037459
v -0.057584 -0.141846 0.037459
v -0.057584 -0.141846 0.037459
v -0.040202 -0.141252 0.037459
v -0.040202 -0.141252 0.037459
v -0.040202 -0.141252 0.037459
v -0.305976 -0.845202 0.037459
v -0.305976 -0.845202 0.037459
v -0.305976 -0.845202 0.037459
v -0.321924 -0.841726 0.037459
v -0.321924 -0.841726 0.037459
v -0.321924 -0.841726 0.037459
v -0.138934 -0.144632 0.037459
v -0.138934 -0.144632 0.037459
v -0.138934 -0.144632 0.037459
v -0.203402 -0.362858 0.037459
v -0.203402 -0.362858 0.037459
v -0.203402 -0.362858 0.037459
v -0.203402 -0.362858 0.037459
v -0.120161 -0.143989 0.037459
v -0.120161 -0.143989 0.037459
v -0.120161 -0.143989 0.037459
v -0.182758 -0.364215 0.037459
v -0.182758 -0.364215 0.037459
v -0.182758 -0.364215 0.037459
v -0.182758 -0.364215 0.037459
v -0.289702 -0.597383 0.037459
v -0.289702 -0.597383 0.037459
v -0.289702 -0.597383 0.037459
v -0.289702 -0.597383 0.037459
v -0.268647 -0.599527 0.037459
v -0.268647 -0.599527 0.037459
v -0.268647 -0.599527 0.037459
v -0.268647 -0.599527 0.037459
v -0.374745 -0.792015 0.037459
v -0.374745 -0.792015 0.037459
v -0.374745 -0.792015 0.037459
v -0.395934 -0.787632 0.037459
v -0.395934 -0.787632 0.037459
v -0.395934 -0.787632 0.037459
vn 0.9799 -0.1994 -0.0000
vn 0.9625 -0.2711 -0.0000
vn -0.0000 -0.0000 -1.0000
vn 0.9625 -0.2712 -0.0000
vn 0.9451 -0.3269 -0.0000
vn 0.8796 -0.4757 -0.0000
vn 0.9226 -0.3857 -0.0000
vn -0.9214 0.3886 -0.0000
vn -0.8333 0.5528 -0.0000
vn -0.9869 0.1613 -0.0000
vn -0.9877 0.1562 -0.0000
vn 0.9961 -0.0883 -0.0000
vn 0.9799 -0.1993 -0.0000
vn -0.9216 0.3882 -0.0000
vn 0.0211 -0.9998 -0.0000
vn 0.8707 -0.4918 -0.0000
vn 0.3083 -0.9420 -0.1328
vn 0.3083 -0.9420 0.1328
vn -0.3547 0.2195 -0.9089
vn -0.0162 0.0100 -0.9998
vn -0.2570 -0.9394 -0.2268
vn -0.3008 -0.9423 -0.1467
vn 0.0218 0.0909 -0.9956
vn 0.0367 0.0790 -0.9962
vn 0.0084 0.0348 -0.9994
vn 0.0277 0.0366 -0.9989
vn 0.2239 0.9746 -0.0003
vn 0.2260 0.9741 -0.0000
vn 0.2281 0.9736 -0.0000
vn 0.2269 0.9739 -0.0007
vn 0.0368 0.0790 -0.9962
vn 0.1447 -0.0083 -0.9894
vn 0.0278 0.0366 -0.9989
vn 0.1540 -0.0649 -0.9859
vn -0.2474 -0.9436 -0.2199
vn 0.3085 -0.9419 -0.1328
vn 0.8736 -0.4866 -0.0000
vn 0.2269 0.9739 -0.0006
vn 0.2353 0.9719 -0.0000
vn 0.2352 0.9720 -0.0003
vn 0.2456 0.9694 -0.0000
vn 0.2398 0.9708 -0.0000
vn 0.2471 0.9690 -0.0000
vn -0.3006 -0.9424 -0.1467
vn -0.2569 -0.9395 -0.2268
vn -0.3005 -0.9424 0.1467
vn -0.2570 -0.9394 0.2268
vn -0.8499 0.5270 -0.0000
vn 0.2208 0.9753 -0.0000
vn 0.2210 0.9753 -0.0005
vn 0.2239 0.9746 -0.0002
vn 0.2350 0.9720 -0.0004
vn 0.2393 0.9709 -0.0000
vn -0.2570 -0.9394 -0.2269
vn -0.0163 0.0100 -0.9998
vn -0.2474 -0.9436 -0.2200
vn -0.0315 0.9995 -0.0000
vn -0.0315 0.9995 0.0001
vn -0.0314 0.9995 0.0003
vn -0.0312 0.9995 0.0001
vn -0.0313 0.9995 -0.0000
vn -0.0000 -0.0000 1.0000
vn 0.0002 -0.0024 1.0000
vn 0.9978 -0.0667 -0.0000
vn -0.0106 0.3859 0.9225
vn -0.0106 0.3861 0.9224
vn -0.0106 0.3863 0.9223
vn -0.0106 0.3858 0.9225
vn 0.0012 -0.0000 1.0000
vn 0.0139 -0.4636 0.8859
vn 0.9961 -0.0881 -0.0000
vn 0.9961 -0.0879 -0.0000
vn 0.9996 -0.0118 -0.0263
vn 0.9991 0.0047 -0.0429
vn -0.0096 0.3483 -0.9373
vn -0.0112 0.4079 -0.9130
vn -0.4643 0.8857 -0.0000
vn -0.4643 0.8857 0.0001
vn 0.0001 -0.0004 1.0000
vn 0.0102 -0.3321 0.9432
vn 0.0137 -0.4636 0.8859
vn -0.0112 0.4080 -0.9129
vn -0.0096 0.3485 -0.9372
vn -0.0165 0.5984 -0.8011
vn -0.9981 -0.0201 0.0584
vn -0.9981 -0.0201 0.0583
vn 0.0129 -0.4636 0.8859
vn 0.0179 -0.6180 0.7860
vn 0.0102 -0.3322 0.9431
vn 0.0179 -0.6179 0.7860
vn 0.9980 0.0217 -0.0599
vn 0.9980 0.0217 -0.0598
vn 0.9154 -0.4025 -0.0000
vn 0.9570 -0.2901 -0.0000
vn -0.9586 0.2847 -0.0000
vn -0.9139 0.4060 -0.0000
vn 0.9570 -0.2900 -0.0000
vn 0.9705 -0.2411 -0.0000
vn 0.0342 -0.9994 -0.0000
vn -0.9726 0.2323 -0.0000
vn -0.9587 0.2846 -0.0000
vn 0.2130 0.9771 -0.0000
vn 0.8853 -0.4650 -0.0000
vn 0.9154 -0.4026 -0.0000
vn -0.9138 0.4061 -0.0000
vn -0.8810 0.4730 -0.0000
vn 0.9488 -0.3159 -0.0000
vn 0.9590 -0.2833 -0.0000
vn -0.9619 0.2734 -0.0000
vn -0.9508 0.3099 -0.0000
vn 0.9108 -0.4128 -0.0000
vn 0.9488 -0.3160 -0.0000
vn -0.9507 0.3100 -0.0000
vn -0.9124 0.4094 -0.0000
vn 0.2026 0.9793 -0.0000
vn 0.8731 -0.4875 -0.0000
vn -0.9123 0.4094 -0.0000
vn -0.8758 0.4827 -0.0000
vn -0.3547 0.2195 0.9089
vn -0.3006 -0.9424 0.1470
vn -0.0162 0.0100 0.9998
vn 0.0277 0.0366 0.9989
vn 0.0367 0.0790 0.9962
vn 0.0084 0.0348 0.9994
vn 0.0218 0.0909 0.9956
vn 0.2239 0.9746 0.0003
vn 0.2270 0.9739 0.0007
vn 0.1540 -0.0649 0.9859
vn 0.1447 -0.0083 0.9894
vn 0.0278 0.0366 0.9989
vn 0.0368 0.0790 0.9962
vn -0.2475 -0.9436 0.2199
vn 0.3084 -0.9420 0.1328
vn 0.2269 0.9739 0.0006
vn 0.2282 0.9736 -0.0000
vn 0.2210 0.9753 0.0005
vn 0.2350 0.9720 0.0004
vn 0.2240 0.9746 0.0002
vn -0.2476 -0.9436 0.2200
vn -0.0163 0.0100 0.9998
vn -0.0314 0.9995 -0.0001
vn -0.0315 0.9995 -0.0008
vn -0.0315 0.9995 -0.0004
vn -0.0314 0.9995 -0.0000
vn 0.0002 -0.0024 -1.0000
vn -0.0106 0.3859 -0.9225
vn -0.0106 0.3860 -0.9224
vn -0.0106 0.3860 -0.9225
vn -0.0106 0.3861 -0.9224
vn 0.0138 -0.4636 -0.8859
vn 0.0012 -0.0000 -1.0000
vn 0.9991 0.0047 0.0429
vn 0.9996 -0.0118 0.0263
vn -0.0112 0.4079 0.9130
vn -0.0096 0.3483 0.9373
vn -0.4643 0.8857 -0.0001
vn 0.0001 -0.0004 -1.0000
vn 0.0102 -0.3321 -0.9432
vn -0.0112 0.4080 0.9129
vn -0.0165 0.5984 0.8011
vn -0.0165 0.5983 0.8011
vn -0.0096 0.3485 0.9373
vn -0.9981 -0.0201 -0.0584
vn -0.9981 -0.0201 -0.0583
vn 0.0179 -0.6180 -0.7860
vn 0.0102 -0.3323 -0.9431
vn 0.0138 -0.4637 -0.8859
vn 0.9980 0.0217 0.0598
vn 0.9980 0.0218 0.0598
vn -0.0312 0.9995 -0.0000
vn -0.9533 0.3019 -0.0000
vn -0.9736 0.2282 -0.0000
vn -0.2474 -0.9436 -0.2198
vn -0.2474 -0.9436 0.2198
vn -0.2569 -0.9395 0.2266
vn -0.2569 -0.9395 -0.2266
vn -0.9348 0.3553 -0.0000
vn -0.9533 0.3020 -0.0000
vn -0.8473 0.5311 -0.0000
vn -0.8735 0.4869 -0.0000
vn 0.9961 -0.0882 -0.0000
vn -0.8735 0.4868 -0.0000
vn -0.8765 0.4813 -0.0000
vn -0.8490 0.5284 -0.0000
vn 0.3083 -0.9420 -0.1326
vn 0.3084 -0.9420 0.1327
vn -0.2473 -0.9437 0.2198
vn 0.9799 -0.1995 -0.0000
vn 0.9959 -0.0910 -0.0000
vn 0.2457 0.9693 -0.0000
vn -0.9978 0.0667 -0.0000
vt 0.019522 0.697980
vt 0.010754 0.477585
vt 0.046555 0.480926
vt 0.055113 0.699587
vt 0.118061 0.257908
vt 0.099813 0.481906
vt 0.086967 0.481594
vt 0.104875 0.257685
vt 0.029833 0.244401
vt 0.064110 0.253159
vt 0.279556 0.028933
vt 0.243459 0.029914
vt 0.239470 0.007226
vt 0.268701 0.000000
vt 0.817405 0.755249
vt 0.815886 0.786213
vt 0.699377 0.755949
vt 0.779971 0.786438
vt 0.737250 0.786702
vt 0.701618 0.786964
vt 0.096681 0.692835
vt 0.088448 0.692861
vt 0.215752 0.688649
vt 0.225150 0.657451
vt 0.337400 0.668460
vt 0.340077 0.701594
vt 0.213428 0.712602
vt 0.196711 0.902916
vt 0.058083 0.722097
vt 0.176604 0.904724
vt 0.047865 0.890453
vt 0.336383 0.725252
vt 0.311534 0.913232
vt 0.016098 0.715941
vt 0.159954 0.691791
vt 0.143371 0.692608
vt 0.102402 0.695234
vt 0.082830 0.695666
vt 0.012891 0.723898
vt 0.048473 0.727726
vt 0.048745 0.727957
vt 0.139039 0.030717
vt 0.146762 0.032336
vt 0.073896 0.003566
vt 0.109123 0.010127
vt 0.815897 0.735174
vt 0.700541 0.735781
vt 0.833385 0.555322
vt 0.837591 0.564453
vt 0.821057 0.567948
vt 0.815866 0.560686
vt 0.865667 0.597985
vt 0.871060 0.719725
vt 0.838551 0.598701
vt 0.840309 0.720438
vt 0.816811 0.799331
vt 0.782049 0.799566
vt 0.781901 0.788061
vt 0.816762 0.787840
vt 0.871653 0.733511
vt 0.839025 0.737967
vt 0.820995 0.719885
vt 0.672280 0.053889
vt 0.667971 0.304930
vt 0.620558 0.304412
vt 0.624705 0.053957
vt 0.641668 0.544245
vt 0.594043 0.536844
vt 0.019108 0.243271
vt 0.062126 0.001348
vt 0.000000 0.477327
vt 0.008806 0.697113
vt 0.005362 0.714101
vt 0.735358 0.788349
vt 0.738314 0.005994
vt 0.738314 0.000000
vt 0.744299 0.005907
vt 0.700912 0.559911
vt 0.695532 0.567235
vt 0.710037 0.005994
vt 0.687367 0.006189
vt 0.687349 0.004113
vt 0.710011 0.000000
vt 0.867832 0.597898
vt 0.873221 0.719758
vt 0.872610 0.731797
vt 0.801722 0.007476
vt 0.801722 0.000000
vt 0.811411 0.007476
vt 0.820692 0.000000
vt 0.820692 0.109598
vt 0.811411 0.102122
vt 0.895255 0.446354
vt 0.881383 0.329409
vt 0.967467 0.438065
vt 0.966322 0.428375
vt 0.953530 0.320574
vt 0.903741 0.517895
vt 0.809754 0.529044
vt 0.801268 0.457503
vt 0.986776 0.308340
vt 0.999095 0.407586
vt 0.993864 0.407586
vt 0.981545 0.308340
vt 0.952429 0.311293
vt 0.965041 0.310046
vt 0.556458 0.969464
vt 0.563640 0.969234
vt 0.570421 0.975703
vt 0.568257 0.982529
vt 0.154490 0.918123
vt 0.046101 0.902513
vt 0.782634 0.007926
vt 0.782643 0.000000
vt 0.977360 0.409292
vt 0.137133 0.951724
vt 0.042139 0.932994
vt 0.766086 0.026235
vt 0.760863 0.023123
vt 0.590908 0.995231
vt 0.587534 1.000000
vt 0.078475 0.481327
vt 0.096514 0.256931
vt 0.133909 0.027604
vt 0.204837 0.259463
vt 0.220907 0.074646
vt 0.261571 0.252156
vt 0.239569 0.482366
vt 0.184799 0.484699
vt 0.154142 0.483091
vt 0.108232 0.482255
vt 0.173621 0.260308
vt 0.126487 0.258282
vt 0.152163 0.029524
vt 0.197887 0.071737
vt 0.176429 0.484034
vt 0.155416 0.689333
vt 0.148022 0.689684
vt 0.162598 0.483536
vt 0.196356 0.259733
vt 0.182039 0.260502
vt 0.203461 0.075234
vt 0.214852 0.077389
vt 0.531105 0.750542
vt 0.496378 0.742342
vt 0.547735 0.528941
vt 0.583454 0.534580
vt 0.520544 0.294549
vt 0.533546 0.297072
vt 0.508101 0.520314
vt 0.495439 0.517925
vt 0.574465 0.302205
vt 0.609934 0.302558
vt 0.404247 0.039268
vt 0.417363 0.011991
vt 0.446133 0.022681
vt 0.439877 0.045676
vt 0.464834 0.728718
vt 0.456742 0.726982
vt 0.454101 0.946265
vt 0.330573 0.919000
vt 0.487699 0.762282
vt 0.525240 0.767938
vt 0.394569 0.714298
vt 0.410698 0.718128
vt 0.450627 0.728116
vt 0.469795 0.732588
vt 0.532240 0.775137
vt 0.496641 0.768081
vt 0.543301 0.067227
vt 0.535278 0.067330
vt 0.577135 0.053344
vt 0.612797 0.053904
vt 0.683249 0.554623
vt 0.678991 0.563779
vt 0.676137 0.720630
vt 0.645402 0.719938
vt 0.677977 0.598187
vt 0.650833 0.597591
vt 0.700891 0.800108
vt 0.700767 0.788607
vt 0.735431 0.799844
vt 0.677354 0.738230
vt 0.644802 0.733711
vt 0.695409 0.720101
vt 0.541486 0.753328
vt 0.738314 0.115592
vt 0.744299 0.115680
vt 0.738314 0.121587
vt 0.710037 0.115592
vt 0.710011 0.121587
vt 0.687349 0.117476
vt 0.687367 0.115399
vt 0.648667 0.597512
vt 0.643241 0.719975
vt 0.643847 0.731999
vt 0.801722 0.102122
vt 0.801722 0.109598
vt 0.787396 0.340558
vt 0.715183 0.348848
vt 0.729122 0.466339
vt 0.727968 0.456650
vt 0.679998 0.344732
vt 0.685084 0.343508
vt 0.696326 0.442882
vt 0.691241 0.444106
vt 0.701529 0.341305
vt 0.714082 0.339567
vt 0.461816 0.947352
vt 0.462003 0.961809
vt 0.455208 0.959363
vt 0.451209 0.958754
vt 0.345451 0.937899
vt 0.782628 0.109598
vt 0.782649 0.101672
vt 0.712771 0.440679
vt 0.443175 0.989228
vt 0.347845 0.975003
vt 0.761005 0.086314
vt 0.766252 0.083240
vt 0.465697 0.987994
vt 0.459825 0.988250
vt 0.516463 0.521933
vt 0.541892 0.298188
vt 0.549047 0.065268
vt 0.434627 0.281125
vt 0.379896 0.265635
vt 0.453542 0.094585
vt 0.356735 0.495474
vt 0.411173 0.505394
vt 0.441757 0.508834
vt 0.487094 0.516610
vt 0.465346 0.286896
vt 0.512175 0.293277
vt 0.530432 0.063516
vt 0.476859 0.096302
vt 0.419577 0.506013
vt 0.433331 0.507792
vt 0.406710 0.714350
vt 0.399516 0.712667
vt 0.442981 0.282643
vt 0.456998 0.285653
vt 0.470645 0.098593
vt 0.458973 0.098499
vt 0.286805 0.001972
vt 0.402033 0.013496
vt 0.580392 0.789913
vt 0.611670 0.811099
vt 0.701202 0.543080
vt 0.816140 0.543902
vt 0.587259 0.766333
vt 0.872896 0.257868
vt 0.778910 0.269017
vt 0.777793 0.259804
vt 0.871827 0.248649
s 1
usemtl MPX_Magazine_Standard_mat.001
f 93/1/1 97/2/2 1/3/2
f 93/1/1 1/3/2 6/4/1
f 278/5/3 281/6/3 284/7/3
f 278/5/3 284/7/3 288/8/3
f 2/3/4 98/2/4 102/9/5
f 2/3/4 102/9/5 19/10/5
f 58/11/3 76/12/3 79/13/3
f 58/11/3 79/13/3 70/14/3
f 130/15/6 123/16/7 462/17/6
f 123/16/7 129/18/7 462/17/6
f 129/18/7 458/19/7 462/17/6
f 458/19/7 455/20/7 462/17/6
f 281/6/3 291/21/3 294/22/3
f 281/6/3 294/22/3 284/7/3
f 30/23/8 9/24/9 338/25/9
f 30/23/8 338/25/9 360/26/8
f 50/27/3 42/28/3 45/29/3
f 42/28/3 185/30/3 45/29/3
f 45/29/3 185/30/3 36/31/3
f 40/28/10 49/27/11 378/32/11
f 40/28/10 378/32/11 368/33/10
f 91/34/12 94/1/13 5/4/13
f 91/34/12 5/4/13 44/29/12
f 32/23/3 51/27/3 250/35/3
f 51/27/3 47/29/3 250/35/3
f 250/35/3 47/29/3 240/36/3
f 240/36/3 47/29/3 237/37/3
f 237/37/3 47/29/3 218/38/3
f 7/4/3 218/38/3 47/29/3
f 48/27/11 31/23/14 379/32/11
f 379/32/11 31/23/14 361/26/14
f 86/39/15 90/34/15 43/29/15
f 86/39/15 43/29/15 52/40/15
f 46/29/3 37/31/3 54/41/3
f 297/42/3 300/43/3 277/5/3
f 297/42/3 277/5/3 287/8/3
f 18/10/16 101/9/16 105/44/16
f 18/10/16 105/44/16 59/45/16
f 85/46/17 131/15/6 461/17/6
f 85/46/17 461/17/6 411/47/18
f 141/48/19 158/49/20 24/50/21
f 141/48/19 24/50/21 147/51/22
f 151/52/23 154/53/24 137/54/25
f 137/54/25 154/53/24 142/55/26
f 60/56/27 104/57/28 109/58/29
f 60/56/27 109/58/29 80/59/30
f 155/53/31 126/60/32 145/55/33
f 145/55/33 126/60/32 132/61/34
f 26/62/35 143/55/26 84/46/36
f 84/46/36 143/55/26 133/61/34
f 108/63/37 112/64/37 443/65/37
f 108/63/37 443/65/37 439/66/37
f 113/64/5 116/67/4 444/65/5
f 444/65/5 116/67/4 447/68/4
f 106/44/3 103/9/3 114/69/3
f 106/44/3 114/69/3 111/70/3
f 103/9/3 100/2/3 118/71/3
f 103/9/3 118/71/3 114/69/3
f 99/2/3 95/1/3 121/72/3
f 99/2/3 121/72/3 117/71/3
f 96/1/3 92/34/3 89/73/3
f 96/1/3 89/73/3 122/72/3
f 81/59/38 107/58/29 128/18/39
f 81/59/38 128/18/39 125/16/40
f 127/18/39 110/58/29 437/74/29
f 127/18/39 437/74/29 456/19/39
f 67/75/41 157/76/42 140/77/43
f 148/51/44 23/50/45 475/78/46
f 475/78/46 23/50/45 352/79/47
f 77/80/48 71/81/48 149/82/48
f 77/80/48 149/82/48 134/83/48
f 72/84/49 61/85/27 152/53/49
f 72/84/49 152/53/49 150/52/49
f 153/53/50 62/85/51 124/60/52
f 62/85/51 82/86/38 124/60/52
f 68/75/41 78/80/53 135/83/53
f 68/75/41 135/83/53 156/76/53
f 25/50/54 159/49/55 28/62/56
f 159/49/55 136/54/25 28/62/56
f 136/54/25 144/55/26 28/62/56
f 182/87/57 183/88/58 166/89/59
f 166/89/59 183/88/58 39/90/60
f 167/89/61 41/90/61 369/91/61
f 167/89/61 369/91/61 494/92/61
f 172/93/62 169/94/62 165/95/62
f 165/95/62 169/94/62 179/96/62
f 161/97/63 179/96/62 169/94/62
f 174/93/64 168/98/64 495/99/64
f 174/93/64 495/99/64 502/100/64
f 204/101/65 207/102/66 210/103/67
f 204/101/65 210/103/67 213/104/68
f 162/97/63 175/105/69 188/106/70
f 176/107/71 35/108/72 193/109/73
f 176/107/71 193/109/73 191/110/74
f 38/31/3 186/30/3 199/111/75
f 38/31/3 199/111/75 194/112/76
f 184/88/77 181/87/77 203/113/78
f 184/88/77 203/113/78 197/114/78
f 180/96/79 160/97/63 201/115/80
f 201/115/80 160/97/63 187/106/81
f 195/112/82 198/111/83 209/116/84
f 195/112/82 209/116/84 206/117/84
f 196/114/85 202/113/86 212/118/85
f 196/114/85 212/118/85 208/119/85
f 189/106/87 214/104/88 200/115/89
f 200/115/89 214/104/88 211/103/90
f 190/110/74 192/109/73 205/120/91
f 190/110/74 205/120/91 215/121/92
f 223/122/3 219/38/3 7/4/3
f 223/122/3 7/4/3 4/3/3
f 227/123/3 222/122/3 3/3/3
f 227/123/3 3/3/3 21/10/3
f 64/45/3 268/124/3 226/123/3
f 64/45/3 226/123/3 20/10/3
f 256/125/3 265/126/3 17/127/3
f 57/11/3 17/127/3 75/12/3
f 17/127/3 265/126/3 75/12/3
f 13/128/3 253/129/3 257/125/3
f 13/128/3 257/125/3 16/127/3
f 249/35/3 253/129/3 33/23/3
f 33/23/3 253/129/3 10/24/3
f 10/24/3 253/129/3 13/128/3
f 243/130/3 240/36/3 236/37/3
f 243/130/3 236/37/3 233/131/3
f 246/132/3 243/130/3 233/131/3
f 246/132/3 233/131/3 230/133/3
f 273/134/3 261/135/3 246/132/3
f 273/134/3 246/132/3 230/133/3
f 307/136/3 303/137/3 310/138/3
f 307/136/3 310/138/3 314/139/3
f 317/140/3 306/136/3 321/141/3
f 321/141/3 306/136/3 313/139/3
f 325/142/3 328/143/3 318/140/3
f 325/142/3 318/140/3 322/141/3
f 74/12/3 264/126/3 260/135/3
f 65/45/3 274/134/3 269/124/3
f 261/135/3 272/134/3 73/12/3
f 73/12/3 272/134/3 63/45/3
f 228/133/93 232/131/94 279/6/94
f 228/133/93 279/6/94 276/5/93
f 220/122/95 225/123/96 286/8/96
f 220/122/95 286/8/96 282/7/95
f 231/131/97 235/37/98 290/21/98
f 231/131/97 290/21/98 280/6/97
f 234/37/99 217/38/99 289/21/99
f 289/21/99 217/38/99 293/22/99
f 216/38/100 221/122/101 283/7/101
f 216/38/100 283/7/101 292/22/100
f 267/124/102 270/134/102 298/43/102
f 267/124/102 298/43/102 296/42/102
f 271/134/103 229/133/104 275/5/104
f 271/134/103 275/5/104 299/43/103
f 224/123/105 266/124/106 295/42/106
f 224/123/105 295/42/106 285/8/105
f 251/129/107 248/35/108 302/137/108
f 251/129/107 302/137/108 304/136/107
f 247/35/99 239/36/99 309/138/99
f 247/35/99 309/138/99 301/137/99
f 238/36/109 242/130/110 312/139/110
f 238/36/109 312/139/110 308/138/109
f 255/125/111 252/129/112 315/140/111
f 315/140/111 252/129/112 305/136/112
f 241/130/113 245/132/114 320/141/114
f 241/130/113 320/141/114 311/139/113
f 259/135/115 262/126/115 324/142/115
f 324/142/115 262/126/115 326/143/115
f 263/126/116 254/125/111 327/143/116
f 327/143/116 254/125/111 316/140/111
f 244/132/117 258/135/118 323/142/118
f 244/132/117 323/142/118 319/141/117
f 424/144/1 334/145/1 331/146/2
f 424/144/1 331/146/2 427/147/2
f 609/148/62 621/149/62 616/150/62
f 609/148/62 616/150/62 612/151/62
f 332/146/4 349/152/5 428/147/4
f 428/147/4 349/152/5 432/153/5
f 384/154/62 394/155/62 405/156/62
f 384/154/62 405/156/62 401/157/62
f 613/151/62 617/150/62 627/158/62
f 613/151/62 627/158/62 624/159/62
f 362/160/62 512/161/62 371/162/62
f 376/32/62 371/162/62 367/33/62
f 371/162/62 512/161/62 367/33/62
f 420/163/12 375/162/12 335/145/13
f 420/163/12 335/145/13 423/144/13
f 359/26/62 580/164/62 377/32/62
f 377/32/62 580/164/62 373/162/62
f 580/164/62 568/165/62 373/162/62
f 568/165/62 565/166/62 373/162/62
f 565/166/62 546/167/62 373/162/62
f 333/145/62 373/162/62 546/167/62
f 415/168/15 381/169/15 374/162/15
f 415/168/15 374/162/15 419/163/15
f 372/162/62 380/169/62 363/160/62
f 620/149/62 608/148/62 630/170/62
f 630/170/62 608/148/62 633/171/62
f 348/152/16 393/172/16 435/173/16
f 348/152/16 435/173/16 431/153/16
f 467/174/119 476/78/120 351/79/47
f 467/174/119 351/79/47 486/175/121
f 474/176/122 482/177/123 463/178/124
f 463/178/124 482/177/123 478/179/125
f 391/180/126 409/181/127 438/74/29
f 391/180/126 438/74/29 434/182/28
f 460/183/128 452/184/129 471/176/130
f 471/176/130 452/184/129 481/177/131
f 357/185/132 412/47/133 473/176/122
f 473/176/122 412/47/133 459/183/128
f 433/173/62 436/66/62 442/65/62
f 433/173/62 442/65/62 430/153/62
f 429/153/62 441/65/62 445/68/62
f 429/153/62 445/68/62 425/147/62
f 426/147/62 446/68/62 422/144/62
f 422/144/62 446/68/62 449/186/62
f 421/144/62 449/186/62 414/168/62
f 421/144/62 414/168/62 418/163/62
f 410/181/134 454/20/39 457/19/39
f 410/181/134 457/19/39 440/74/135
f 395/187/41 468/188/43 488/189/42
f 407/190/48 466/191/48 479/192/48
f 407/190/48 479/192/48 403/193/48
f 404/194/49 480/179/49 484/177/49
f 404/194/49 484/177/49 392/195/126
f 483/177/136 453/184/137 390/195/138
f 390/195/138 453/184/137 408/196/134
f 396/187/41 487/189/53 465/191/53
f 396/187/41 465/191/53 406/190/53
f 350/79/47 355/185/139 485/175/140
f 485/175/140 355/185/139 464/178/124
f 355/185/139 472/176/122 464/178/124
f 509/197/141 496/92/142 370/91/143
f 509/197/141 370/91/143 515/198/144
f 500/199/3 503/100/3 492/200/145
f 497/201/3 511/202/3 503/100/3
f 492/200/145 503/100/3 511/202/3
f 535/203/146 544/204/147 541/205/148
f 535/203/146 541/205/148 538/206/149
f 491/200/145 518/207/150 507/208/151
f 506/209/71 516/210/152 523/211/153
f 506/209/71 523/211/153 365/160/72
f 364/160/62 522/212/154 525/213/155
f 364/160/62 525/213/155 513/161/62
f 514/198/77 527/214/156 529/215/156
f 514/198/77 529/215/156 508/197/77
f 510/202/157 531/216/158 493/200/145
f 493/200/145 531/216/158 519/207/150
f 521/212/159 533/217/160 536/218/161
f 521/212/159 536/218/161 526/213/162
f 528/214/163 537/219/163 539/220/163
f 528/214/163 539/220/163 530/215/164
f 540/205/165 543/204/165 532/216/166
f 532/216/166 543/204/165 520/207/167
f 517/210/152 542/221/168 534/222/169
f 517/210/152 534/222/169 524/211/153
f 550/223/62 330/146/62 545/167/62
f 545/167/62 330/146/62 333/145/62
f 554/224/62 347/152/62 329/146/62
f 554/224/62 329/146/62 549/223/62
f 388/172/62 346/152/62 553/224/62
f 388/172/62 553/224/62 599/225/62
f 587/226/62 343/227/62 596/228/62
f 383/154/62 400/157/62 343/227/62
f 343/227/62 400/157/62 596/228/62
f 339/229/62 342/227/62 586/226/62
f 339/229/62 586/226/62 583/230/62
f 579/164/62 358/26/62 583/230/62
f 358/26/62 336/25/62 583/230/62
f 336/25/62 339/229/62 583/230/62
f 573/231/62 561/232/62 569/165/62
f 569/165/62 561/232/62 564/166/62
f 576/233/62 557/234/62 560/232/62
f 576/233/62 560/232/62 572/231/62
f 604/235/62 557/234/62 576/233/62
f 604/235/62 576/233/62 591/236/62
f 640/237/62 647/238/62 643/239/62
f 640/237/62 643/239/62 636/240/62
f 650/241/62 654/242/62 646/238/62
f 650/241/62 646/238/62 639/237/62
f 658/243/62 655/242/62 651/241/62
f 658/243/62 651/241/62 661/244/62
f 399/157/62 590/236/62 595/228/62
f 389/172/62 600/225/62 605/235/62
f 387/172/62 603/235/62 402/157/62
f 402/157/62 603/235/62 592/236/62
f 559/234/93 610/148/93 615/151/94
f 559/234/93 615/151/94 562/232/94
f 551/223/95 618/150/95 623/149/96
f 551/223/95 623/149/96 556/224/96
f 563/232/97 614/151/97 626/159/98
f 563/232/97 626/159/98 567/166/98
f 566/166/99 625/159/99 629/158/99
f 566/166/99 629/158/99 548/167/99
f 547/167/100 628/158/100 619/150/101
f 547/167/100 619/150/101 552/223/101
f 602/225/102 632/170/102 634/171/102
f 602/225/102 634/171/102 606/235/102
f 607/235/103 635/171/103 611/148/104
f 607/235/103 611/148/104 558/234/104
f 555/224/105 622/149/105 631/170/106
f 555/224/105 631/170/106 601/225/106
f 585/230/107 641/237/107 638/240/108
f 585/230/107 638/240/108 582/164/108
f 581/164/99 637/240/99 645/239/99
f 581/164/99 645/239/99 571/165/99
f 570/165/109 644/239/109 649/238/110
f 570/165/109 649/238/110 575/231/110
f 588/226/111 653/241/111 642/237/112
f 588/226/111 642/237/112 584/230/112
f 574/231/113 648/238/113 657/242/114
f 574/231/113 657/242/114 578/233/114
f 594/236/115 660/243/115 662/244/115
f 594/236/115 662/244/115 597/228/115
f 598/228/116 663/244/116 652/241/111
f 598/228/116 652/241/111 589/226/111
f 577/233/117 656/242/117 659/243/118
f 577/233/117 659/243/118 593/236/118
f 173/93/170 501/100/170 499/199/170
f 173/93/170 499/199/170 171/94/170
f 12/128/171 341/229/171 337/25/172
f 12/128/171 337/25/172 8/24/172
f 27/62/173 356/185/174 353/79/175
f 27/62/173 353/79/175 22/50/176
f 14/127/177 344/227/177 340/229/178
f 14/127/177 340/229/178 11/128/178
f 66/245/179 398/246/179 385/154/180
f 66/245/179 385/154/180 55/11/180
f 366/160/181 382/169/181 505/209/181
f 382/169/181 417/168/181 505/209/181
f 505/209/181 417/168/181 178/107/181
f 417/168/181 88/247/181 178/107/181
f 53/248/181 34/108/181 88/247/181
f 178/107/181 88/247/181 34/108/181
f 56/11/182 386/154/182 345/227/183
f 56/11/182 345/227/183 15/127/183
f 146/51/184 477/78/184 469/249/184
f 146/51/184 469/249/184 138/250/184
f 83/46/185 413/47/186 354/185/187
f 83/46/185 354/185/187 29/62/35
f 120/251/188 450/186/188 448/68/2
f 120/251/188 448/68/2 115/67/2
f 87/247/189 416/168/189 451/186/1
f 87/247/189 451/186/1 119/251/1
f 139/77/43 470/188/43 397/187/190
f 139/77/43 397/187/190 69/75/190
f 164/252/61 490/253/61 504/254/61
f 164/252/61 504/254/61 177/255/61
f 170/94/191 498/199/191 489/253/191
f 170/94/191 489/253/191 163/252/191
